<?xml version="1.0" encoding="utf-8"?>
<!-- Generator: Adobe Illustrator 16.0.0, SVG Export Plug-In . SVG Version: 6.00 Build 0)  -->
<!DOCTYPE svg PUBLIC "-//W3C//DTD SVG 1.1//EN" "http://www.w3.org/Graphics/SVG/1.1/DTD/svg11.dtd">
<svg version="1.1" id="Capa_1" xmlns="http://www.w3.org/2000/svg" xmlns:xlink="http://www.w3.org/1999/xlink" x="0px" y="0px"
	 width="20.001px" height="20.001px" viewBox="0 0 20.001 20.001" enable-background="new 0 0 20.001 20.001" xml:space="preserve">
<g>
	<g>
		<linearGradient id="SVGID_1_" gradientUnits="userSpaceOnUse" x1="10" y1="0" x2="10" y2="17.9016">
			<stop  offset="0" style="stop-color:#5A5B5F"/>
			<stop  offset="0.0326" style="stop-color:#57585C"/>
			<stop  offset="0.456" style="stop-color:#333234"/>
			<stop  offset="0.7932" style="stop-color:#1C1B1C"/>
			<stop  offset="1" style="stop-color:#141213"/>
		</linearGradient>
		<circle fill="url(#SVGID_1_)" cx="10" cy="10" r="10"/>
		<linearGradient id="SVGID_2_" gradientUnits="userSpaceOnUse" x1="10" y1="0" x2="10" y2="20.0015">
			<stop  offset="0" style="stop-color:#5A5B5F"/>
			<stop  offset="0.0197" style="stop-color:#56575A"/>
			<stop  offset="0.1524" style="stop-color:#3E3E40"/>
			<stop  offset="0.2989" style="stop-color:#2B2A2C"/>
			<stop  offset="0.4647" style="stop-color:#1E1C1E"/>
			<stop  offset="0.6657" style="stop-color:#161416"/>
			<stop  offset="1" style="stop-color:#141213"/>
		</linearGradient>
		<path fill="url(#SVGID_2_)" d="M10,1.6c4.633,0,8.4,3.769,8.4,8.401c0,4.631-3.768,8.4-8.4,8.4c-4.631,0-8.4-3.77-8.4-8.4
			C1.6,5.368,5.369,1.6,10,1.6 M10,0C4.477,0,0,4.478,0,10c0,5.523,4.477,10.001,10,10.001S20,15.524,20,10C20,4.478,15.523,0,10,0
			L10,0z"/>
	</g>
	<path fill="#EDECEB" d="M10,6.821c1.754,0,3.178,1.426,3.178,3.179c0,1.752-1.424,3.178-3.178,3.178
		c-1.752,0-3.178-1.426-3.178-3.178C6.822,8.247,8.248,6.821,10,6.821 M10,5.579c-2.441,0-4.42,1.979-4.42,4.421
		c0,2.441,1.979,4.42,4.42,4.42s4.422-1.979,4.422-4.42C14.422,7.559,12.441,5.579,10,5.579L10,5.579z"/>
</g>
</svg>
