<?xml version="1.0" standalone="no"?>
<!DOCTYPE svg PUBLIC "-//W3C//DTD SVG 20010904//EN"
 "http://www.w3.org/TR/2001/REC-SVG-20010904/DTD/svg10.dtd">
<svg version="1.0" xmlns="http://www.w3.org/2000/svg"
 width="512.000000pt" height="512.000000pt" viewBox="0 0 512.000000 512.000000"
 preserveAspectRatio="xMidYMid meet">

<g transform="translate(0.000000,512.000000) scale(0.100000,-0.100000)"
fill="#000000" stroke="none">
<path d="M2996 5104 c-137 -30 -281 -115 -371 -216 -59 -68 -131 -213 -150
-303 -53 -256 39 -511 246 -676 172 -139 406 -179 629 -110 191 60 355 222
427 423 35 99 43 262 18 373 -51 229 -235 424 -469 497 -85 26 -242 32 -330
12z"/>
<path d="M4190 3839 l-255 -299 -290 0 -291 0 -567 230 -566 230 -508 0 -508
0 -290 -380 c-159 -209 -289 -386 -287 -393 2 -6 51 -119 110 -249 107 -237
107 -237 127 -217 11 11 160 173 330 362 l310 342 268 3 c147 1 267 0 267 -3
0 -10 -590 -2211 -598 -2227 -4 -9 -225 -186 -492 -393 -267 -207 -487 -378
-488 -380 -7 -7 143 -445 151 -445 10 0 1443 889 1493 926 29 21 32 32 79 248
27 125 52 231 55 236 5 8 987 -253 1043 -278 13 -5 95 -190 257 -577 131 -314
242 -569 245 -568 14 4 350 308 353 318 4 15 -354 1405 -365 1415 -4 5 -183
56 -398 115 -214 59 -392 109 -394 111 -3 2 44 214 104 472 59 257 110 477
113 489 l4 23 530 2 530 3 200 393 200 393 -93 172 c-51 95 -100 184 -109 199
l-16 27 -254 -300z"/>
</g>
</svg>
