<?xml version="1.0" encoding="utf-8"?>
<!-- Generator: Adobe Illustrator 16.0.3, SVG Export Plug-In . SVG Version: 6.00 Build 0)  -->
<!DOCTYPE svg PUBLIC "-//W3C//DTD SVG 1.1//EN" "http://www.w3.org/Graphics/SVG/1.1/DTD/svg11.dtd">
<svg version="1.1" id="Capa_1" xmlns="http://www.w3.org/2000/svg" xmlns:xlink="http://www.w3.org/1999/xlink" x="0px" y="0px"
	 width="250px" height="300px" viewBox="0 0 250 300" enable-background="new 0 0 250 300" xml:space="preserve">
<path display="none" fill-rule="evenodd" clip-rule="evenodd" fill="#FEFEFE" d="M1,151C1,102.167,1.034,53.333,0.917,4.5
	C0.91,1.518,1.518,0.914,4.5,0.918c81,0.103,162,0.103,243,0c2.981-0.004,3.585,0.6,3.582,3.582c-0.1,97.666-0.1,195.333,0,293
	c0.003,2.98-0.599,3.586-3.582,3.582c-81-0.103-162-0.103-243,0c-2.981,0.004-3.591-0.598-3.584-3.582
	C1.034,248.667,1,199.833,1,151z"/>
<path fill-rule="evenodd" clip-rule="evenodd" fill="#C03252" d="M205.84,134.978c13.156,9.569,23.624,21.179,27.283,37.556
	c5.044,22.575,1.707,43.272-14.804,60.597c-6.655,6.984-13.609,13.685-20.432,20.511c-1.276,1.277-2.432,2.426-4.596,2.418
	c-37.437-0.132-74.874-0.165-112.311-0.22c-1.18-1.127-1.453-2.612-1.478-4.124c-0.167-10.331-0.186-20.662,0.009-30.993
	c0.022-1.174,0.278-2.315,0.853-3.359c2.216-2.474,5.218-1.82,7.962-1.826c26.99-0.06,53.98-0.125,80.97,0.045
	c5.212,0.032,9.449-1.18,12.806-5.267c1.368-1.665,2.902-3.255,4.592-4.585c6.52-5.134,8.86-11.683,7.591-19.859
	c-1.411-9.084-5.447-16.362-13.409-21.191c-5.123-3.107-10.727-4.23-16.724-4.22c-27.323,0.05-54.646,0.125-81.962-0.008
	c-0.988-0.089-2.014-0.254-2.981-0.094c-9.923,1.651-17.18-2.412-23.32-9.981c-3.858-4.756-8.596-8.803-12.979-13.126
	c-1.56-1.538-2.926-3.178-3.75-5.226c-0.053-23.308-0.078-46.616-0.208-69.925c-0.011-2.049,0.761-3.369,2.127-4.72
	c7.813-7.727,15.583-15.495,23.308-23.308c1.354-1.369,2.678-2.128,4.723-2.119c28.97,0.123,57.939,0.154,86.909,0.208
	c1.321,1.269,1.498,2.946,1.518,4.613c0.119,9.985,0.13,19.972-0.003,29.957c-0.021,1.505-0.233,2.992-1.118,4.285
	c-2.421,2.03-5.36,1.527-8.141,1.535c-18.664,0.054-37.329-0.001-55.994,0.039c-8.749,0.02-9.677,0.986-9.695,9.845
	c-0.021,10.332-0.086,20.665,0.029,30.996c0.074,6.654,1.317,7.919,7.988,7.955c21.497,0.116,42.995-0.028,64.488,0.06
	c5.469,0.426,10.949,0.026,16.426,0.135c11.847,0.233,22.338,4.491,32.153,10.772C204.667,132.991,205.5,133.786,205.84,134.978z"/>
<path fill-rule="evenodd" clip-rule="evenodd" fill="#100F10" d="M81.15,216.973c-0.056,12.955-0.113,25.911-0.169,38.867
	c-12.992,0.053-25.985,0.049-38.976,0.212c-2.415,0.03-3.061-0.686-3.054-3.072c0.122-40.318,0.155-80.636,0.208-120.954
	c7.572,7.45,15.326,14.727,22.631,22.43c3.244,3.421,6.537,5.179,11.254,4.609c2.614-0.316,5.308,0.018,7.965,0.059
	c1.547,1.568,1.563,3.596,1.572,5.574c0.072,15.545,0.059,31.091,0.009,46.636C82.583,213.317,82.558,215.33,81.15,216.973z"/>
<path fill-rule="evenodd" clip-rule="evenodd" fill="#100F10" d="M205.84,134.978c-15.047-10.498-31.964-13.288-49.848-12.1
	c1.091-3.368,4.434-3.008,6.866-3.944c10-3.854,16.315-12.625,16.137-22.835c-0.189-10.791-7.736-19.992-18.387-22.57
	c-1.739-0.421-4.188,0.234-4.761-2.504c0.058-12.954,0.114-25.909,0.172-38.864c21.378-0.822,37.453,8.644,50.702,24.882
	c15.995,19.605,16.459,53.527,2.241,74.157C208.039,132.539,206.886,133.722,205.84,134.978z"/>
<path display="none" fill-rule="evenodd" clip-rule="evenodd" fill="#FEFEFE" d="M81.15,216.973
	c-0.047-19.284-0.094-38.567-0.141-57.851c29.301-0.04,58.618-0.67,87.897,0.126c14.772,0.4,26.221,12.32,27.113,29.021
	c0.39,7.295-2.499,12.411-7.257,17.891c-7.365,8.484-15.418,11.5-26.704,11.125C135.115,216.392,108.123,216.981,81.15,216.973z"/>
<path display="none" fill-rule="evenodd" clip-rule="evenodd" fill="#FEFEFE" d="M155.848,71.024
	c5.364,1.775,10.854,2.6,15.61,6.574c9.804,8.193,11.369,23.001,4.463,33.107c-4.928,7.211-12.716,9.067-19.929,12.173
	c-22.817,0.04-45.635,0.068-68.453,0.132c-4.545,0.012-6.572-2.217-6.556-6.696c0.047-12.826-0.002-25.652,0.026-38.478
	c0.011-4.811,2.035-6.824,6.878-6.827C110.541,70.996,133.194,71.017,155.848,71.024z"/>
</svg>
