<?xml version="1.0" encoding="utf-8"?>
<!-- Generator: Adobe Illustrator 16.0.3, SVG Export Plug-In . SVG Version: 6.00 Build 0)  -->
<!DOCTYPE svg PUBLIC "-//W3C//DTD SVG 1.1//EN" "http://www.w3.org/Graphics/SVG/1.1/DTD/svg11.dtd">
<svg version="1.1" id="Capa_1" xmlns="http://www.w3.org/2000/svg" xmlns:xlink="http://www.w3.org/1999/xlink" x="0px" y="0px"
	 width="250px" height="300px" viewBox="0 0 250 300" enable-background="new 0 0 250 300" xml:space="preserve">
<g>
	<path display="none" fill-rule="evenodd" clip-rule="evenodd" fill="#FEFEFE" d="M251,151c0,48.833-0.034,97.667,0.083,146.5
		c0.008,2.982-0.601,3.586-3.583,3.582c-81-0.103-162-0.103-243,0c-2.982,0.004-3.584-0.6-3.582-3.582
		c0.099-97.667,0.099-195.333,0-293C0.916,1.518,1.518,0.914,4.5,0.918c81,0.103,162,0.103,243,0c2.982-0.004,3.591,0.6,3.583,3.582
		C250.966,53.333,251,102.167,251,151z"/>
	<path fill-rule="evenodd" clip-rule="evenodd" fill="#339EAA" d="M39.002,256.05c-7.236-6.006-12.092-13.88-16.502-21.939
		c-10.735-19.619-15.815-40.547-15.631-63.104C7.301,118.033,7.06,65.055,6.907,12.078c-0.012-4.195,1.09-5.187,5.217-5.17
		c39.482,0.165,78.965-0.031,118.447,0.159c17.104,0.083,33.128,5.076,48.363,12.561c24.346,11.962,42.267,30.6,54.044,54.767
		c7.387,15.156,11.994,31.38,12.004,48.525c0.029,55.643-0.035,111.284,0.105,166.927c0.01,4.08-0.894,5.268-5.136,5.25
		c-41.148-0.173-82.3,0.165-123.444-0.266c-12.544-0.132-24.58-4.248-36.166-9.021c-15.505-6.389-29.054-15.72-40.388-28.153
		c-0.427-0.47-0.674-1.103-1.004-1.66c1.779-1.55,3.964-1.571,6.128-1.569c11.627,0.012,23.256-0.151,34.875,0.073
		c36.433,0.213,72.873,0.001,109.313,0.128c3.949,0.014,7.005-1.255,9.74-4.079c6.019-6.215,12.307-12.17,18.302-18.406
		c10.607-11.035,15.712-24.255,16.375-39.595c0.97-22.436-7.616-40.077-25.17-53.674c-1.181-0.914-2.379-1.84-2.944-3.312
		c-0.364-2.258,1.249-3.676,2.304-5.317c23.209-36.125,5.525-87.464-40.83-96.362c-3.969-0.762-7.949-0.483-11.94-0.451
		c-26.806,0.166-53.606,0.142-80.405-0.013c-5.217-0.03-9.218,1.3-12.795,5.2c-5.396,5.883-11.129,11.47-16.923,16.968
		c-3.276,3.109-4.543,6.619-4.525,11.092c0.087,21.971,0.133,43.942,0.014,65.919c0.354,39.109,0.091,78.215,0.137,117.32
		C40.606,252.088,40.561,254.274,39.002,256.05z"/>
	<path fill-rule="evenodd" clip-rule="evenodd" fill="#FEFEFE" d="M39.107,131.997c-0.036-23.299-0.044-46.599-0.153-69.897
		c-0.01-2.049,0.77-3.377,2.135-4.729c7.808-7.725,15.576-15.489,23.298-23.299c1.356-1.371,2.694-2.125,4.735-2.117
		c28.958,0.103,57.916,0.117,86.874,0.153c1.287,1.281,1.521,2.942,1.541,4.62c0.123,9.995,0.129,19.991-0.002,29.986
		c-0.02,1.507-0.231,2.995-1.113,4.292c-2.416,2.042-5.357,1.537-8.138,1.545c-18.666,0.055-37.332-0.001-55.998,0.039
		c-8.753,0.02-9.683,0.986-9.701,9.841c-0.021,10.333-0.086,20.667,0.029,30.999c0.074,6.656,1.317,7.92,7.988,7.956
		c21.499,0.116,42.999-0.028,64.493,0.06c5.474,0.426,10.959,0.024,16.439,0.134c11.855,0.237,22.353,4.506,32.175,10.793
		c1.001,0.641,1.813,1.453,2.176,2.629c13.044,9.51,23.476,21.02,27.165,37.25c5.187,22.815,1.801,43.702-14.991,61.162
		c-6.576,6.837-13.431,13.407-20.08,20.176c-1.599,1.628-3.196,2.499-5.604,2.491c-37.124-0.121-74.248-0.145-111.373-0.189
		c-1.13-1.125-1.472-2.57-1.494-4.073c-0.158-10.539-0.245-21.08,0.05-31.619c0.028-0.989,0.316-1.948,0.8-2.826
		c2.209-2.486,5.213-1.831,7.957-1.837c26.825-0.06,53.652-0.143,80.475,0.054c5.572,0.041,10.11-1.209,13.662-5.625
		c1.245-1.549,2.675-3.009,4.236-4.235c6.526-5.125,8.866-11.678,7.596-19.856c-1.41-9.085-5.446-16.363-13.408-21.193
		c-5.124-3.107-10.728-4.231-16.725-4.221c-27.325,0.05-54.65,0.124-81.968-0.007c-0.989-0.09-2.015-0.254-2.983-0.094
		c-9.702,1.603-16.904-2.209-22.98-9.647c-3.983-4.876-8.834-9.049-13.344-13.488C41.311,135.683,39.999,134.002,39.107,131.997z"/>
	<path fill-rule="evenodd" clip-rule="evenodd" fill="#100F10" d="M39.107,131.997c7.631,7.506,15.479,14.81,22.795,22.61
		c3.249,3.464,6.576,4.912,11.159,4.449c2.607-0.263,5.271,0.047,7.91,0.099c1.583,1.549,1.599,3.581,1.609,5.559
		c0.076,15.556,0.059,31.111,0.013,46.667c-0.006,1.991-0.076,3.994-1.441,5.651c-0.049,12.953-0.099,25.907-0.148,38.859
		c-14.018,0.035-28.036,0.07-42.054,0.104l0.052,0.054C39.037,214.699,39.072,173.348,39.107,131.997z"/>
	<path fill-rule="evenodd" clip-rule="evenodd" fill="#100F10" d="M205.886,135.002c-8.714-5.038-17.482-9.815-27.667-11.442
		c-7.402-1.183-14.808,0.038-22.18-0.711c1.104-3.358,4.44-2.995,6.875-3.931c10.142-3.895,16.501-12.997,16.048-23.384
		c-0.465-10.65-7.926-19.5-18.433-22.022c-1.724-0.413-4.199,0.264-4.68-2.545c0.049-12.953,0.098-25.906,0.146-38.858
		c28.964-2.227,57.67,22.443,62.045,50.418c2.678,17.117,1.085,33.407-8.961,48.135
		C208.068,132.144,206.953,133.557,205.886,135.002z"/>
	<path fill-rule="evenodd" clip-rule="evenodd" fill="#339EAA" d="M81.151,217.032c-0.061-19.292-0.121-38.585-0.181-57.877
		c29.444-0.051,58.91-0.808,88.321,0.142c14.963,0.482,26.08,12.705,26.707,29.472c0.266,7.121-2.71,12.082-7.286,17.437
		c-7.329,8.577-15.475,11.427-26.714,11.072C135.073,216.43,108.104,217.021,81.151,217.032z"/>
	<path fill-rule="evenodd" clip-rule="evenodd" fill="#339EAA" d="M155.85,70.967c5.433,1.843,11.061,2.689,15.811,6.761
		c9.625,8.25,11.122,22.886,4.269,32.971c-4.907,7.219-12.659,9.099-19.889,12.15c-22.984,0.05-45.968,0.127-68.952,0.127
		c-4.277,0-6.125-2.433-6.108-6.638c0.054-12.826-0.001-25.651,0.03-38.478c0.011-4.836,2.025-6.844,6.879-6.851
		C110.543,70.977,133.196,70.978,155.85,70.967z"/>
</g>
</svg>
