<?xml version="1.0" encoding="utf-8"?>
<!-- Generator: Adobe Illustrator 16.0.3, SVG Export Plug-In . SVG Version: 6.00 Build 0)  -->
<!DOCTYPE svg PUBLIC "-//W3C//DTD SVG 1.1//EN" "http://www.w3.org/Graphics/SVG/1.1/DTD/svg11.dtd">
<svg version="1.1" id="Capa_1" xmlns="http://www.w3.org/2000/svg" xmlns:xlink="http://www.w3.org/1999/xlink" x="0px" y="0px"
	 width="250px" height="300px" viewBox="0 0 250 300" enable-background="new 0 0 250 300" xml:space="preserve">
<g>
	<path display="none" fill-rule="evenodd" clip-rule="evenodd" fill="#FEFEFE" d="M1,151C1,102.167,1.034,53.333,0.917,4.5
		C0.91,1.518,1.518,0.914,4.5,0.918c81,0.103,162,0.103,243,0c2.981-0.004,3.585,0.6,3.582,3.582c-0.1,97.666-0.1,195.333,0,293
		c0.003,2.98-0.599,3.586-3.582,3.582c-81-0.103-162-0.103-243,0c-2.981,0.004-3.591-0.598-3.584-3.582
		C1.034,248.667,1,199.833,1,151z"/>
	<path fill-rule="evenodd" clip-rule="evenodd" fill="#339EAA" d="M205.847,134.966c13.042,9.517,23.504,21.017,27.197,37.254
		c5.191,22.818,1.826,43.717-14.985,61.181c-6.581,6.837-13.409,13.438-20.094,20.176c-1.431,1.442-2.79,2.5-5.092,2.491
		c-37.301-0.135-74.603-0.167-111.904-0.222c-1.173-1.133-1.444-2.617-1.468-4.129c-0.163-10.332-0.185-20.664,0.011-30.995
		c0.022-1.173,0.278-2.315,0.853-3.358c2.215-2.475,5.217-1.821,7.961-1.827c26.99-0.06,53.981-0.125,80.97,0.045
		c5.212,0.032,9.448-1.18,12.806-5.266c1.368-1.666,2.901-3.256,4.592-4.586c6.52-5.133,8.86-11.682,7.591-19.859
		c-1.411-9.084-5.447-16.361-13.409-21.19c-5.123-3.108-10.727-4.231-16.723-4.221c-27.323,0.05-54.646,0.125-81.963-0.008
		c-0.988-0.089-2.014-0.254-2.98-0.094c-9.92,1.648-17.169-2.416-23.32-9.977c-3.969-4.88-8.829-9.037-13.329-13.479
		c-1.446-1.427-2.605-3.011-3.41-4.865c-0.05-23.308-0.075-46.615-0.198-69.923c-0.011-2.044,0.756-3.379,2.125-4.734
		c7.812-7.726,15.582-15.495,23.308-23.308c1.357-1.372,2.697-2.126,4.738-2.117c28.968,0.118,57.937,0.148,86.905,0.199
		c1.313,1.274,1.488,2.951,1.508,4.619c0.116,9.985,0.129,19.972-0.005,29.957c-0.021,1.506-0.233,2.992-1.118,4.286
		c-2.42,2.031-5.36,1.527-8.141,1.535c-18.664,0.054-37.329-0.001-55.993,0.039c-8.749,0.02-9.678,0.986-9.695,9.845
		c-0.021,10.332-0.086,20.664,0.029,30.995c0.074,6.655,1.317,7.92,7.988,7.956c21.497,0.116,42.994-0.028,64.487,0.06
		c5.469,0.426,10.949,0.027,16.425,0.135c11.846,0.231,22.335,4.492,32.151,10.767C204.664,132.985,205.497,133.778,205.847,134.966
		z"/>
	<path fill-rule="evenodd" clip-rule="evenodd" fill="#100F10" d="M81.15,216.966c-0.061,12.96-0.121,25.92-0.182,38.88
		c-12.99,0.051-25.981,0.044-38.97,0.206c-2.423,0.03-3.054-0.7-3.047-3.078c0.118-40.312,0.149-80.623,0.2-120.936
		c7.574,7.446,15.332,14.719,22.638,22.419c3.242,3.417,6.53,5.181,11.246,4.606c2.615-0.318,5.309,0.009,7.968,0.045
		c1.538,1.571,1.569,3.595,1.578,5.575c0.071,15.548,0.058,31.096,0.008,46.644C82.583,213.311,82.563,215.325,81.15,216.966z"/>
	<path fill-rule="evenodd" clip-rule="evenodd" fill="#100F10" d="M205.847,134.966c-15.061-10.449-31.959-13.308-49.849-12.072
		c1.061-3.396,4.417-3.018,6.843-3.954c10.02-3.869,16.331-12.615,16.157-22.826c-0.184-10.792-7.73-20.002-18.379-22.582
		c-1.742-0.422-4.187,0.23-4.771-2.499c0.062-12.96,0.123-25.919,0.184-38.878c25.545-2.152,53.518,17.388,60.774,44.967
		C222.241,97.777,219.929,117.663,205.847,134.966z"/>
	<path display="none" fill-rule="evenodd" clip-rule="evenodd" fill="#FEFEFE" d="M81.15,216.966
		c-0.049-19.286-0.098-38.572-0.147-57.858c29.164-0.035,58.339-0.565,87.487,0.097c15.139,0.344,27.153,12.742,27.479,29.843
		c0.131,6.898-2.665,11.771-7.114,17.02c-7.442,8.781-15.777,11.601-27.215,11.217C134.837,216.386,107.983,216.978,81.15,216.966z"
		/>
	<path display="none" fill-rule="evenodd" clip-rule="evenodd" fill="#FEFEFE" d="M155.848,71.032
		c5.374,1.755,10.859,2.597,15.615,6.571c9.793,8.186,11.364,22.989,4.454,33.111c-4.928,7.217-12.733,9.031-19.919,12.18
		c-22.813,0.034-45.626,0.058-68.439,0.115c-4.546,0.012-6.589-2.217-6.574-6.699c0.043-12.822-0.005-25.646,0.026-38.468
		c0.012-4.83,2.025-6.83,6.894-6.833C110.553,70.998,133.2,71.021,155.848,71.032z"/>
</g>
</svg>
