<?xml version="1.0" encoding="utf-8"?>
<!-- Generator: Adobe Illustrator 16.0.3, SVG Export Plug-In . SVG Version: 6.00 Build 0)  -->
<!DOCTYPE svg PUBLIC "-//W3C//DTD SVG 1.1//EN" "http://www.w3.org/Graphics/SVG/1.1/DTD/svg11.dtd">
<svg version="1.1" id="Capa_1" xmlns="http://www.w3.org/2000/svg" xmlns:xlink="http://www.w3.org/1999/xlink" x="0px" y="0px"
	 width="250px" height="300px" viewBox="0 0 250 300" enable-background="new 0 0 250 300" xml:space="preserve">
<g>
	<path display="none" fill-rule="evenodd" clip-rule="evenodd" fill="#FEFEFE" d="M251,151c0,48.833-0.034,97.667,0.083,146.5
		c0.008,2.982-0.601,3.586-3.583,3.582c-81-0.103-162-0.103-243,0c-2.982,0.004-3.584-0.6-3.582-3.582
		c0.099-97.667,0.099-195.333,0-293C0.916,1.518,1.518,0.914,4.5,0.918c81,0.103,162,0.103,243,0c2.982-0.004,3.591,0.6,3.583,3.582
		C250.966,53.333,251,102.167,251,151z"/>
	<path fill-rule="evenodd" clip-rule="evenodd" fill="#C03252" d="M38.95,256.096c-7.277-5.979-12.042-13.932-16.494-21.956
		c-10.664-19.225-15.704-39.816-15.557-61.965C7.249,119.191,7.106,66.202,6.87,13.217c-0.024-5.431,1.628-6.343,6.587-6.317
		c39.656,0.201,79.314-0.122,118.968,0.227c16.189,0.142,31.495,5.056,45.991,12.054c13.061,6.306,24.422,15.021,34.332,25.696
		c13.86,14.931,23.23,32.198,28.425,51.876c2.972,11.259,3.931,22.617,3.893,34.236c-0.176,52.985-0.131,105.973,0.025,158.959
		c0.013,4.213-1.102,5.159-5.212,5.141c-37.156-0.17-74.318-0.418-111.47,0.045c-16.667,0.208-32.5-2.841-47.688-9.124
		c-16.186-6.697-30.688-16.059-41.82-29.962c1.769-1.562,3.946-1.626,6.119-1.623c11.643,0.014,23.287-0.149,34.921,0.074
		c36.434,0.218,72.875,0.001,109.317,0.13c3.948,0.014,7.007-1.25,9.743-4.075c6.019-6.215,12.307-12.171,18.303-18.407
		c10.608-11.034,15.714-24.255,16.378-39.595c0.97-22.436-7.615-40.079-25.17-53.677c-1.181-0.914-2.379-1.84-2.944-3.311
		c-0.364-2.259,1.249-3.677,2.304-5.318c23.209-36.125,5.525-87.464-40.83-96.362c-3.969-0.762-7.949-0.483-11.94-0.451
		c-26.974,0.167-53.94,0.12-80.906,0.001c-4.844-0.021-8.586,1.24-11.935,4.841c-5.551,5.97-11.373,11.699-17.284,17.315
		c-3.274,3.111-4.541,6.621-4.523,11.093c0.087,21.972,0.133,43.943,0.014,65.92c0.355,39.129,0.092,78.253,0.139,117.376
		C40.608,252.156,40.511,254.33,38.95,256.096z"/>
	<path fill-rule="evenodd" clip-rule="evenodd" fill="#FEFEFE" d="M39.123,131.992c-0.041-23.302-0.053-46.604-0.171-69.905
		c-0.01-2.053,0.773-3.367,2.136-4.715c7.809-7.725,15.577-15.489,23.3-23.3c1.353-1.368,2.677-2.128,4.721-2.12
		c28.961,0.111,57.922,0.131,86.883,0.172c1.299,1.275,1.524,2.939,1.545,4.614c0.124,9.993,0.129,19.987-0.001,29.98
		c-0.02,1.507-0.232,2.994-1.115,4.29c-2.417,2.04-5.358,1.535-8.138,1.543c-18.666,0.054-37.332-0.001-55.997,0.039
		c-8.752,0.02-9.681,0.986-9.699,9.842c-0.021,10.333-0.086,20.667,0.029,30.998c0.074,6.656,1.317,7.92,7.989,7.956
		c21.498,0.116,42.997-0.028,64.491,0.06c5.473,0.426,10.958,0.024,16.438,0.134c11.854,0.237,22.352,4.504,32.172,10.792
		c1,0.641,1.814,1.452,2.166,2.635c13.167,9.556,23.611,21.185,27.262,37.547c5.034,22.564,1.692,43.266-14.811,60.586
		c-6.653,6.983-13.629,13.659-20.418,20.514c-1.439,1.453-2.832,2.431-5.107,2.423c-37.263-0.127-74.525-0.152-111.789-0.2
		c-1.142-1.119-1.476-2.567-1.498-4.067c-0.159-10.538-0.246-21.076,0.049-31.612c0.028-0.99,0.317-1.948,0.801-2.826
		c2.211-2.482,5.214-1.828,7.958-1.834c26.992-0.061,53.984-0.125,80.975,0.045c5.212,0.032,9.45-1.177,12.808-5.264
		c1.368-1.666,2.902-3.256,4.592-4.586c6.52-5.134,8.862-11.682,7.593-19.86c-1.411-9.084-5.447-16.362-13.409-21.192
		c-5.124-3.107-10.728-4.23-16.725-4.22c-27.324,0.05-54.649,0.124-81.967-0.007c-0.989-0.09-2.015-0.254-2.983-0.094
		c-9.7,1.602-16.903-2.208-22.979-9.646c-3.983-4.876-8.835-9.047-13.343-13.488C41.315,135.684,39.987,134.015,39.123,131.992z"/>
	<path fill-rule="evenodd" clip-rule="evenodd" fill="#100F10" d="M39.123,131.992c7.516,7.391,15.275,14.555,22.441,22.271
		c3.477,3.744,7.043,5.386,12.006,4.797c2.433-0.289,4.939,0.048,7.412,0.102c1.585,1.55,1.587,3.585,1.597,5.561
		c0.076,15.552,0.06,31.104,0.013,46.654c-0.006,1.99-0.071,3.994-1.44,5.649c-0.048,12.951-0.095,25.901-0.143,38.852
		c-14.036,0.056-28.071,0.113-42.107,0.17c0,0,0.048,0.049,0.048,0.049c0.017-39.376,0.032-78.752,0.055-118.128
		C39.006,135.977,39.082,133.984,39.123,131.992z"/>
	<path fill-rule="evenodd" clip-rule="evenodd" fill="#100F10" d="M205.871,135.007c-8.7-5.07-17.483-9.817-27.663-11.452
		c-7.4-1.188-14.81,0.048-22.182-0.714c1.124-3.337,4.451-2.989,6.891-3.924c10.134-3.886,16.496-12.995,16.045-23.381
		c-0.462-10.646-7.922-19.5-18.424-22.022c-1.727-0.415-4.198,0.261-4.688-2.541c0.047-12.95,0.095-25.9,0.142-38.85
		c29.028-2.24,57.548,22.377,62.03,50.222c2.762,17.154,1.149,33.525-8.932,48.312C208.075,132.146,206.947,133.559,205.871,135.007
		z"/>
	<path fill-rule="evenodd" clip-rule="evenodd" fill="#C03252" d="M81.152,217.025c-0.057-19.288-0.114-38.576-0.17-57.864
		c29.465-0.053,58.953-0.812,88.385,0.139c14.681,0.474,25.74,12.389,26.629,28.942c0.392,7.283-2.471,12.431-7.234,17.919
		c-7.365,8.485-15.42,11.493-26.703,11.125C135.115,216.407,108.124,217.017,81.152,217.025z"/>
	<path fill-rule="evenodd" clip-rule="evenodd" fill="#C03252" d="M155.85,70.973c5.298,1.829,10.782,2.613,15.505,6.512
		c9.671,7.984,11.705,23.374,4.366,33.493c-5.046,6.957-12.591,8.827-19.694,11.863c-22.988,0.053-45.976,0.134-68.963,0.134
		c-4.269,0-6.104-2.436-6.084-6.639c0.06-12.828,0.003-25.657,0.031-38.485c0.011-4.814,2.035-6.835,6.867-6.842
		C110.534,70.979,133.191,70.981,155.85,70.973z"/>
</g>
</svg>
