<svg version="1.2" xmlns="http://www.w3.org/2000/svg" viewBox="0 0 70 70" width="70" height="70"><defs><linearGradient id="P" gradientUnits="userSpaceOnUse"/><linearGradient id="g1" x2="1" href="#P" gradientTransform="matrix(49.999,0,0,49.999,10,35)"><stop stop-color="#5b5b5f"/><stop offset=".02" stop-color="#59595d"/><stop offset=".45" stop-color="#333335"/><stop offset=".79" stop-color="#1c1c1d"/><stop offset="1" stop-color="#141414"/></linearGradient></defs><style>.a{fill:url(#g1)}</style><path  d="m25 61h20l-10 7.5z"/><path  d="m45 8.5h-20l10-7.5z"/><path class="a" d="m35 10c-13.8 0-25 11.2-25 25 0 13.8 11.2 25 25 25 13.8 0 25-11.2 25-25 0-13.8-11.2-25-25-25zm0 6c10.5 0 19 8.5 19 19 0 10.5-8.5 19-19 19-10.5 0-19-8.5-19-19 0-10.5 8.5-19 19-19z"/><path  d="m38.8 35.3q1.2 0.5 2.4 1.9 1.2 1.4 2.4 3.8l4 8h-4.2l-3.7-7.5q-1.5-2.9-2.8-3.9-1.4-0.9-3.7-0.9h-4.3v12.3h-4v-29.2h8.9q5 0 7.5 2.1 2.5 2.1 2.5 6.3 0 2.8-1.3 4.6-1.3 1.8-3.7 2.5zm-5-12.2h-4.9v10.3h4.9q2.9 0 4.3-1.3 1.5-1.3 1.5-3.9 0-2.5-1.5-3.8-1.4-1.3-4.3-1.3z"/></svg>